<?xml version="1.0" standalone="no"?>
<!DOCTYPE svg PUBLIC "-//W3C//DTD SVG 20010904//EN"
 "http://www.w3.org/TR/2001/REC-SVG-20010904/DTD/svg10.dtd">
<svg version="1.0" xmlns="http://www.w3.org/2000/svg"
 width="512.000000pt" height="512.000000pt" viewBox="0 0 512.000000 512.000000"
 preserveAspectRatio="xMidYMid meet">

<g transform="translate(0.000000,512.000000) scale(0.100000,-0.100000)"
fill="#000000" stroke="none">
<path d="M0 2560 l0 -2560 2560 0 2560 0 0 2560 0 2560 -2560 0 -2560 0 0
-2560z m4180 1830 c21 -11 60 -123 60 -172 0 -57 -10 -62 -180 -108 -176 -47
-203 -46 -216 6 -8 33 11 71 67 134 23 25 52 60 66 78 18 23 43 37 87 51 71
23 90 25 116 11z m168 -279 c20 -10 46 -28 56 -40 19 -21 106 -314 106 -357 0
-12 -8 -31 -17 -43 -19 -22 -31 -26 -588 -176 -137 -37 -311 -84 -385 -105
-74 -20 -152 -40 -172 -44 -36 -7 -56 -21 -44 -33 3 -3 27 1 53 10 26 8 63 18
80 22 18 3 35 11 38 16 4 5 17 9 29 9 22 0 73 12 246 58 41 11 120 32 175 47
55 15 183 49 284 76 102 27 196 49 210 49 31 0 61 -27 61 -55 0 -59 -64 -157
-144 -220 -68 -54 -86 -62 -196 -91 -52 -14 -126 -34 -165 -45 -38 -11 -131
-35 -205 -55 -74 -19 -146 -38 -160 -43 -14 -5 -44 -14 -67 -21 -42 -13 -43
-14 -43 -57 0 -36 3 -43 20 -43 11 0 20 -4 20 -10 0 -5 -9 -10 -20 -10 -17 0
-20 -7 -20 -40 0 -39 1 -40 38 -41 20 -1 43 -1 50 0 6 1 12 -3 12 -9 0 -5 -22
-10 -50 -10 l-50 0 0 -40 0 -40 40 0 c35 0 40 3 41 23 1 18 2 17 10 -8 11 -38
11 -317 0 -370 l-9 -40 -1 38 c-1 36 -2 37 -41 37 l-40 0 0 -40 0 -40 50 0
c28 0 50 -4 50 -10 0 -5 -22 -10 -50 -10 l-50 0 0 -40 c0 -38 2 -40 31 -40 17
0 28 -4 24 -10 -3 -5 -17 -10 -31 -10 -21 0 -24 -4 -24 -39 0 -22 4 -41 8 -43
4 -1 0 -19 -10 -38 -17 -35 -17 -35 -18 -7 0 25 -3 27 -40 27 l-40 0 0 -40 c0
-39 1 -40 36 -40 21 0 33 -4 29 -10 -3 -5 -19 -10 -35 -10 -28 0 -29 -2 -32
-52 l-3 -52 -47 3 -48 3 0 -41 c0 -24 5 -41 12 -41 6 0 3 -9 -8 -21 -10 -11
-20 -16 -22 -10 -2 6 -22 11 -44 11 l-40 0 3 -47 3 -48 -52 -3 c-50 -3 -52 -4
-52 -32 0 -16 -4 -32 -10 -35 -6 -4 -10 8 -10 29 0 35 -1 36 -40 36 -40 0 -40
0 -40 -39 0 -37 2 -40 33 -43 l32 -4 -30 -8 c-16 -5 -34 -14 -38 -20 -6 -8
-10 -7 -14 2 -2 7 -22 12 -44 12 -37 0 -39 -2 -39 -30 0 -16 -4 -30 -10 -30
-5 0 -10 14 -10 30 0 28 -2 30 -41 30 l-41 0 3 -47 c4 -55 12 -51 -126 -53
-41 -1 -73 -6 -78 -13 -7 -9 -10 -9 -14 1 -6 15 -83 16 -83 1 0 -8 -4 -8 -13
-1 -7 6 -44 12 -83 13 -38 0 -81 1 -96 1 -27 1 -28 3 -28 49 l0 49 -40 0 c-38
0 -40 -2 -40 -31 0 -17 -4 -28 -10 -24 -5 3 -10 17 -10 31 0 21 -4 24 -39 24
-22 0 -41 -4 -43 -8 -1 -4 -19 0 -38 10 -35 17 -35 17 -7 18 25 0 27 3 27 40
l0 40 -40 0 c-38 0 -40 -2 -40 -30 0 -16 -4 -30 -10 -30 -5 0 -10 14 -10 30 0
28 -3 30 -36 30 -19 0 -33 -3 -31 -7 6 -10 21 -398 22 -549 0 -105 -1 -113
-28 -151 -15 -22 -49 -52 -75 -66 -52 -28 -708 -207 -760 -207 -78 0 -155 57
-177 133 -58 195 -54 415 13 707 36 156 37 362 2 488 -38 142 -75 168 -216
158 -50 -3 -114 -13 -140 -21 -78 -24 -129 -20 -153 11 -12 16 -21 42 -21 63
0 32 9 45 93 126 51 50 101 102 109 116 22 35 16 33 433 144 166 45 175 48
169 57 -8 12 -26 8 -259 -56 -196 -54 -257 -68 -280 -62 -44 11 -55 56 -55
221 0 139 1 148 28 208 43 94 78 118 235 161 148 41 446 121 522 141 28 7 86
23 130 35 44 12 101 26 128 32 29 7 47 16 47 25 0 10 6 12 19 8 11 -3 55 3 98
14 43 11 116 30 163 41 47 12 94 27 105 34 11 7 35 13 54 14 18 2 43 8 54 14
12 6 37 12 56 13 20 1 40 10 48 21 9 13 16 15 21 8 12 -18 88 8 84 29 -2 9 2
17 8 17 5 0 10 -7 10 -16 0 -10 6 -14 14 -11 15 6 30 10 211 57 66 17 128 33
138 36 9 3 17 12 17 20 0 16 17 19 22 4 2 -6 60 5 143 26 77 20 158 41 180 46
22 6 45 16 50 22 6 6 26 11 45 12 19 0 121 24 225 52 644 175 784 211 823 211
23 1 59 -8 80 -18z m-2148 -151 c0 -5 -4 -10 -10 -10 -5 0 -10 5 -10 10 0 6 5
10 10 10 6 0 10 -4 10 -10z m100 0 c0 -5 -4 -10 -10 -10 -5 0 -10 5 -10 10 0
6 5 10 10 10 6 0 10 -4 10 -10z m100 0 c0 -5 -4 -10 -10 -10 -5 0 -10 5 -10
10 0 6 5 10 10 10 6 0 10 -4 10 -10z m100 0 c0 -5 -4 -10 -10 -10 -5 0 -10 5
-10 10 0 6 5 10 10 10 6 0 10 -4 10 -10z m100 0 c0 -5 -4 -10 -10 -10 -5 0
-10 5 -10 10 0 6 5 10 10 10 6 0 10 -4 10 -10z m100 0 c0 -5 -4 -10 -10 -10
-5 0 -10 5 -10 10 0 6 5 10 10 10 6 0 10 -4 10 -10z m100 0 c0 -5 -4 -10 -10
-10 -5 0 -10 5 -10 10 0 6 5 10 10 10 6 0 10 -4 10 -10z m100 0 c0 -5 -4 -10
-10 -10 -5 0 -10 5 -10 10 0 6 5 10 10 10 6 0 10 -4 10 -10z m95 0 c3 -5 1
-10 -4 -10 -6 0 -11 5 -11 10 0 6 2 10 4 10 3 0 8 -4 11 -10z m-1095 -100 c0
-5 -4 -10 -10 -10 -5 0 -10 5 -10 10 0 6 5 10 10 10 6 0 10 -4 10 -10z m100 0
c0 -5 -4 -10 -10 -10 -5 0 -10 5 -10 10 0 6 5 10 10 10 6 0 10 -4 10 -10z
m100 0 c0 -5 -4 -10 -10 -10 -5 0 -10 5 -10 10 0 6 5 10 10 10 6 0 10 -4 10
-10z m100 0 c0 -5 -4 -10 -10 -10 -5 0 -10 5 -10 10 0 6 5 10 10 10 6 0 10 -4
10 -10z m100 0 c0 -5 -4 -10 -10 -10 -5 0 -10 5 -10 10 0 6 5 10 10 10 6 0 10
-4 10 -10z m100 0 c0 -5 -4 -10 -10 -10 -5 0 -10 5 -10 10 0 6 5 10 10 10 6 0
10 -4 10 -10z m100 0 c0 -5 -4 -10 -10 -10 -5 0 -10 5 -10 10 0 6 5 10 10 10
6 0 10 -4 10 -10z m100 0 c0 -5 -4 -10 -10 -10 -5 0 -10 5 -10 10 0 6 5 10 10
10 6 0 10 -4 10 -10z m100 0 c0 -5 -4 -10 -10 -10 -5 0 -10 5 -10 10 0 6 5 10
10 10 6 0 10 -4 10 -10z m100 0 c0 -5 -4 -10 -10 -10 -5 0 -10 5 -10 10 0 6 5
10 10 10 6 0 10 -4 10 -10z m100 0 c0 -5 -4 -10 -10 -10 -5 0 -10 5 -10 10 0
6 5 10 10 10 6 0 10 -4 10 -10z m100 0 c0 -5 -4 -10 -10 -10 -5 0 -10 5 -10
10 0 6 5 10 10 10 6 0 10 -4 10 -10z m100 0 c0 -5 -4 -10 -10 -10 -5 0 -10 5
-10 10 0 6 5 10 10 10 6 0 10 -4 10 -10z m-1300 -100 c0 -5 -4 -10 -10 -10 -5
0 -10 5 -10 10 0 6 5 10 10 10 6 0 10 -4 10 -10z m100 0 c0 -5 -4 -10 -10 -10
-5 0 -10 5 -10 10 0 6 5 10 10 10 6 0 10 -4 10 -10z m100 0 c0 -5 -4 -10 -10
-10 -5 0 -10 5 -10 10 0 6 5 10 10 10 6 0 10 -4 10 -10z m100 0 c0 -5 -4 -10
-10 -10 -5 0 -10 5 -10 10 0 6 5 10 10 10 6 0 10 -4 10 -10z m100 0 c0 -5 -4
-10 -10 -10 -5 0 -10 5 -10 10 0 6 5 10 10 10 6 0 10 -4 10 -10z m100 0 c0 -5
-4 -10 -10 -10 -5 0 -10 5 -10 10 0 6 5 10 10 10 6 0 10 -4 10 -10z m100 0 c0
-5 -4 -10 -10 -10 -5 0 -10 5 -10 10 0 6 5 10 10 10 6 0 10 -4 10 -10z m100 0
c0 -5 -4 -10 -10 -10 -5 0 -10 5 -10 10 0 6 5 10 10 10 6 0 10 -4 10 -10z
m100 0 c0 -5 -4 -10 -10 -10 -5 0 -10 5 -10 10 0 6 5 10 10 10 6 0 10 -4 10
-10z m100 0 c0 -5 -4 -10 -10 -10 -5 0 -10 5 -10 10 0 6 5 10 10 10 6 0 10 -4
10 -10z m-1100 -100 c0 -5 -4 -10 -10 -10 -5 0 -10 5 -10 10 0 6 5 10 10 10 6
0 10 -4 10 -10z m100 0 c0 -5 -4 -10 -10 -10 -5 0 -10 5 -10 10 0 6 5 10 10
10 6 0 10 -4 10 -10z m100 0 c0 -5 -4 -10 -10 -10 -5 0 -10 5 -10 10 0 6 5 10
10 10 6 0 10 -4 10 -10z m100 0 c0 -5 -4 -10 -10 -10 -5 0 -10 5 -10 10 0 6 5
10 10 10 6 0 10 -4 10 -10z m100 0 c0 -5 -4 -10 -10 -10 -5 0 -10 5 -10 10 0
6 5 10 10 10 6 0 10 -4 10 -10z m100 0 c0 -5 -4 -10 -10 -10 -5 0 -10 5 -10
10 0 6 5 10 10 10 6 0 10 -4 10 -10z m100 0 c0 -5 -4 -10 -10 -10 -5 0 -10 5
-10 10 0 6 5 10 10 10 6 0 10 -4 10 -10z m100 0 c0 -5 -4 -10 -10 -10 -5 0
-10 5 -10 10 0 6 5 10 10 10 6 0 10 -4 10 -10z m-800 -100 c0 -5 -4 -10 -10
-10 -5 0 -10 5 -10 10 0 6 5 10 10 10 6 0 10 -4 10 -10z m100 0 c0 -5 -4 -10
-10 -10 -5 0 -10 5 -10 10 0 6 5 10 10 10 6 0 10 -4 10 -10z m100 0 c0 -5 -4
-10 -10 -10 -5 0 -10 5 -10 10 0 6 5 10 10 10 6 0 10 -4 10 -10z m100 0 c0 -5
-4 -10 -10 -10 -5 0 -10 5 -10 10 0 6 5 10 10 10 6 0 10 -4 10 -10z m100 0 c0
-5 -4 -10 -10 -10 -5 0 -10 5 -10 10 0 6 5 10 10 10 6 0 10 -4 10 -10z m100 0
c0 -5 -4 -10 -10 -10 -5 0 -10 5 -10 10 0 6 5 10 10 10 6 0 10 -4 10 -10z
m-500 -100 c0 -5 -4 -10 -10 -10 -5 0 -10 5 -10 10 0 6 5 10 10 10 6 0 10 -4
10 -10z m100 0 c0 -5 -4 -10 -10 -10 -5 0 -10 5 -10 10 0 6 5 10 10 10 6 0 10
-4 10 -10z m-1048 -387 c18 -18 20 -32 19 -107 -2 -99 -13 -130 -51 -146 -22
-9 -34 -8 -58 4 -16 8 -32 22 -35 30 -8 21 -80 56 -115 56 -36 0 -82 34 -82
61 0 29 29 68 64 86 89 46 219 54 258 16z m3048 -13 c0 -5 -4 -10 -10 -10 -5
0 -10 5 -10 10 0 6 5 10 10 10 6 0 10 -4 10 -10z m100 0 c0 -5 -4 -10 -10 -10
-5 0 -10 5 -10 10 0 6 5 10 10 10 6 0 10 -4 10 -10z m100 0 c0 -5 -4 -10 -10
-10 -5 0 -10 5 -10 10 0 6 5 10 10 10 6 0 10 -4 10 -10z m100 0 c0 -5 -4 -10
-10 -10 -5 0 -10 5 -10 10 0 6 5 10 10 10 6 0 10 -4 10 -10z m-300 -100 c0 -5
-4 -10 -10 -10 -5 0 -10 5 -10 10 0 6 5 10 10 10 6 0 10 -4 10 -10z m100 0 c0
-5 -4 -10 -10 -10 -5 0 -10 5 -10 10 0 6 5 10 10 10 6 0 10 -4 10 -10z m100 0
c0 -5 -4 -10 -10 -10 -5 0 -10 5 -10 10 0 6 5 10 10 10 6 0 10 -4 10 -10z
m100 0 c0 -5 -4 -10 -10 -10 -5 0 -10 5 -10 10 0 6 5 10 10 10 6 0 10 -4 10
-10z m-200 -100 c0 -5 -4 -10 -10 -10 -5 0 -10 5 -10 10 0 6 5 10 10 10 6 0
10 -4 10 -10z m100 0 c0 -5 -4 -10 -10 -10 -5 0 -10 5 -10 10 0 6 5 10 10 10
6 0 10 -4 10 -10z m100 0 c0 -5 -4 -10 -10 -10 -5 0 -10 5 -10 10 0 6 5 10 10
10 6 0 10 -4 10 -10z m-200 -100 c0 -5 -4 -10 -10 -10 -5 0 -10 5 -10 10 0 6
5 10 10 10 6 0 10 -4 10 -10z m100 0 c0 -5 -4 -10 -10 -10 -5 0 -10 5 -10 10
0 6 5 10 10 10 6 0 10 -4 10 -10z m100 0 c0 -5 -4 -10 -10 -10 -5 0 -10 5 -10
10 0 6 5 10 10 10 6 0 10 -4 10 -10z m-200 -100 c0 -5 -4 -10 -10 -10 -5 0
-10 5 -10 10 0 6 5 10 10 10 6 0 10 -4 10 -10z m100 0 c0 -5 -4 -10 -10 -10
-5 0 -10 5 -10 10 0 6 5 10 10 10 6 0 10 -4 10 -10z m100 0 c0 -5 -4 -10 -10
-10 -5 0 -10 5 -10 10 0 6 5 10 10 10 6 0 10 -4 10 -10z m-200 -100 c0 -5 -4
-10 -10 -10 -5 0 -10 5 -10 10 0 6 5 10 10 10 6 0 10 -4 10 -10z m100 0 c0 -5
-4 -10 -10 -10 -5 0 -10 5 -10 10 0 6 5 10 10 10 6 0 10 -4 10 -10z m100 0 c0
-5 -4 -10 -10 -10 -5 0 -10 5 -10 10 0 6 5 10 10 10 6 0 10 -4 10 -10z m-200
-100 c0 -5 -4 -10 -10 -10 -5 0 -10 5 -10 10 0 6 5 10 10 10 6 0 10 -4 10 -10z
m100 0 c0 -5 -4 -10 -10 -10 -5 0 -10 5 -10 10 0 6 5 10 10 10 6 0 10 -4 10
-10z m100 0 c0 -5 -4 -10 -10 -10 -5 0 -10 5 -10 10 0 6 5 10 10 10 6 0 10 -4
10 -10z m-200 -100 c0 -5 -4 -10 -10 -10 -5 0 -10 5 -10 10 0 6 5 10 10 10 6
0 10 -4 10 -10z m100 0 c0 -5 -4 -10 -10 -10 -5 0 -10 5 -10 10 0 6 5 10 10
10 6 0 10 -4 10 -10z m100 0 c0 -5 -4 -10 -10 -10 -5 0 -10 5 -10 10 0 6 5 10
10 10 6 0 10 -4 10 -10z m-300 -100 c0 -5 -4 -10 -10 -10 -5 0 -10 5 -10 10 0
6 5 10 10 10 6 0 10 -4 10 -10z m100 0 c0 -5 -4 -10 -10 -10 -5 0 -10 5 -10
10 0 6 5 10 10 10 6 0 10 -4 10 -10z m100 0 c0 -5 -4 -10 -10 -10 -5 0 -10 5
-10 10 0 6 5 10 10 10 6 0 10 -4 10 -10z m100 0 c0 -5 -4 -10 -10 -10 -5 0
-10 5 -10 10 0 6 5 10 10 10 6 0 10 -4 10 -10z m-300 -100 c0 -5 -4 -10 -10
-10 -5 0 -10 5 -10 10 0 6 5 10 10 10 6 0 10 -4 10 -10z m100 0 c0 -5 -4 -10
-10 -10 -5 0 -10 5 -10 10 0 6 5 10 10 10 6 0 10 -4 10 -10z m100 0 c0 -5 -4
-10 -10 -10 -5 0 -10 5 -10 10 0 6 5 10 10 10 6 0 10 -4 10 -10z m100 0 c0 -5
-4 -10 -10 -10 -5 0 -10 5 -10 10 0 6 5 10 10 10 6 0 10 -4 10 -10z m-400
-100 c0 -5 -4 -10 -10 -10 -5 0 -10 5 -10 10 0 6 5 10 10 10 6 0 10 -4 10 -10z
m100 0 c0 -5 -4 -10 -10 -10 -5 0 -10 5 -10 10 0 6 5 10 10 10 6 0 10 -4 10
-10z m100 0 c0 -5 -4 -10 -10 -10 -5 0 -10 5 -10 10 0 6 5 10 10 10 6 0 10 -4
10 -10z m100 0 c0 -5 -4 -10 -10 -10 -5 0 -10 5 -10 10 0 6 5 10 10 10 6 0 10
-4 10 -10z m-300 -100 c0 -5 -4 -10 -10 -10 -5 0 -10 5 -10 10 0 6 5 10 10 10
6 0 10 -4 10 -10z m100 0 c0 -5 -4 -10 -10 -10 -5 0 -10 5 -10 10 0 6 5 10 10
10 6 0 10 -4 10 -10z m100 0 c0 -5 -4 -10 -10 -10 -5 0 -10 5 -10 10 0 6 5 10
10 10 6 0 10 -4 10 -10z m100 0 c0 -5 -4 -10 -10 -10 -5 0 -10 5 -10 10 0 6 5
10 10 10 6 0 10 -4 10 -10z m-400 -100 c0 -5 -4 -10 -10 -10 -5 0 -10 5 -10
10 0 6 5 10 10 10 6 0 10 -4 10 -10z m100 0 c0 -5 -4 -10 -10 -10 -5 0 -10 5
-10 10 0 6 5 10 10 10 6 0 10 -4 10 -10z m100 0 c0 -5 -4 -10 -10 -10 -5 0
-10 5 -10 10 0 6 5 10 10 10 6 0 10 -4 10 -10z m100 0 c0 -5 -4 -10 -10 -10
-5 0 -10 5 -10 10 0 6 5 10 10 10 6 0 10 -4 10 -10z m-400 -100 c0 -5 -4 -10
-10 -10 -5 0 -10 5 -10 10 0 6 5 10 10 10 6 0 10 -4 10 -10z m100 0 c0 -5 -4
-10 -10 -10 -5 0 -10 5 -10 10 0 6 5 10 10 10 6 0 10 -4 10 -10z m100 0 c0 -5
-4 -10 -10 -10 -5 0 -10 5 -10 10 0 6 5 10 10 10 6 0 10 -4 10 -10z m100 0 c0
-5 -4 -10 -10 -10 -5 0 -10 5 -10 10 0 6 5 10 10 10 6 0 10 -4 10 -10z m100 0
c0 -5 -4 -10 -10 -10 -5 0 -10 5 -10 10 0 6 5 10 10 10 6 0 10 -4 10 -10z
m-1700 -100 c0 -5 -4 -10 -10 -10 -5 0 -10 5 -10 10 0 6 5 10 10 10 6 0 10 -4
10 -10z m1100 0 c0 -5 -4 -10 -10 -10 -5 0 -10 5 -10 10 0 6 5 10 10 10 6 0
10 -4 10 -10z m100 0 c0 -5 -4 -10 -10 -10 -5 0 -10 5 -10 10 0 6 5 10 10 10
6 0 10 -4 10 -10z m100 0 c0 -5 -4 -10 -10 -10 -5 0 -10 5 -10 10 0 6 5 10 10
10 6 0 10 -4 10 -10z m100 0 c0 -5 -4 -10 -10 -10 -5 0 -10 5 -10 10 0 6 5 10
10 10 6 0 10 -4 10 -10z m100 0 c0 -5 -4 -10 -10 -10 -5 0 -10 5 -10 10 0 6 5
10 10 10 6 0 10 -4 10 -10z m100 0 c0 -5 -4 -10 -10 -10 -5 0 -10 5 -10 10 0
6 5 10 10 10 6 0 10 -4 10 -10z m-1600 -100 c0 -5 -4 -10 -10 -10 -5 0 -10 5
-10 10 0 6 5 10 10 10 6 0 10 -4 10 -10z m100 0 c0 -5 -4 -10 -10 -10 -5 0
-10 5 -10 10 0 6 5 10 10 10 6 0 10 -4 10 -10z m100 0 c0 -5 -4 -10 -10 -10
-5 0 -10 5 -10 10 0 6 5 10 10 10 6 0 10 -4 10 -10z m700 0 c0 -5 -4 -10 -10
-10 -5 0 -10 5 -10 10 0 6 5 10 10 10 6 0 10 -4 10 -10z m100 0 c0 -5 -4 -10
-10 -10 -5 0 -10 5 -10 10 0 6 5 10 10 10 6 0 10 -4 10 -10z m100 0 c0 -5 -4
-10 -10 -10 -5 0 -10 5 -10 10 0 6 5 10 10 10 6 0 10 -4 10 -10z m100 0 c0 -5
-4 -10 -10 -10 -5 0 -10 5 -10 10 0 6 5 10 10 10 6 0 10 -4 10 -10z m100 0 c0
-5 -4 -10 -10 -10 -5 0 -10 5 -10 10 0 6 5 10 10 10 6 0 10 -4 10 -10z m100 0
c0 -5 -4 -10 -10 -10 -5 0 -10 5 -10 10 0 6 5 10 10 10 6 0 10 -4 10 -10z
m100 0 c0 -5 -4 -10 -10 -10 -5 0 -10 5 -10 10 0 6 5 10 10 10 6 0 10 -4 10
-10z m-1500 -100 c0 -5 -4 -10 -10 -10 -5 0 -10 5 -10 10 0 6 5 10 10 10 6 0
10 -4 10 -10z m100 0 c0 -5 -4 -10 -10 -10 -5 0 -10 5 -10 10 0 6 5 10 10 10
6 0 10 -4 10 -10z m100 0 c0 -5 -4 -10 -10 -10 -5 0 -10 5 -10 10 0 6 5 10 10
10 6 0 10 -4 10 -10z m100 0 c0 -5 -4 -10 -10 -10 -5 0 -10 5 -10 10 0 6 5 10
10 10 6 0 10 -4 10 -10z m100 0 c0 -5 -4 -10 -10 -10 -5 0 -10 5 -10 10 0 6 5
10 10 10 6 0 10 -4 10 -10z m100 0 c0 -5 -4 -10 -10 -10 -5 0 -10 5 -10 10 0
6 5 10 10 10 6 0 10 -4 10 -10z m100 0 c0 -5 -4 -10 -10 -10 -5 0 -10 5 -10
10 0 6 5 10 10 10 6 0 10 -4 10 -10z m100 0 c0 -5 -4 -10 -10 -10 -5 0 -10 5
-10 10 0 6 5 10 10 10 6 0 10 -4 10 -10z m100 0 c0 -5 -4 -10 -10 -10 -5 0
-10 5 -10 10 0 6 5 10 10 10 6 0 10 -4 10 -10z m100 0 c0 -5 -4 -10 -10 -10
-5 0 -10 5 -10 10 0 6 5 10 10 10 6 0 10 -4 10 -10z m100 0 c0 -5 -4 -10 -10
-10 -5 0 -10 5 -10 10 0 6 5 10 10 10 6 0 10 -4 10 -10z m100 0 c0 -5 -4 -10
-10 -10 -5 0 -10 5 -10 10 0 6 5 10 10 10 6 0 10 -4 10 -10z m100 0 c0 -5 -4
-10 -10 -10 -5 0 -10 5 -10 10 0 6 5 10 10 10 6 0 10 -4 10 -10z m100 0 c0 -5
-4 -10 -10 -10 -5 0 -10 5 -10 10 0 6 5 10 10 10 6 0 10 -4 10 -10z m100 0 c0
-5 -4 -10 -10 -10 -5 0 -10 5 -10 10 0 6 5 10 10 10 6 0 10 -4 10 -10z m-1400
-100 c0 -5 -4 -10 -10 -10 -5 0 -10 5 -10 10 0 6 5 10 10 10 6 0 10 -4 10 -10z
m100 0 c0 -5 -4 -10 -10 -10 -5 0 -10 5 -10 10 0 6 5 10 10 10 6 0 10 -4 10
-10z m100 0 c0 -5 -4 -10 -10 -10 -5 0 -10 5 -10 10 0 6 5 10 10 10 6 0 10 -4
10 -10z m100 0 c0 -5 -4 -10 -10 -10 -5 0 -10 5 -10 10 0 6 5 10 10 10 6 0 10
-4 10 -10z m100 0 c0 -5 -4 -10 -10 -10 -5 0 -10 5 -10 10 0 6 5 10 10 10 6 0
10 -4 10 -10z m100 0 c0 -5 -4 -10 -10 -10 -5 0 -10 5 -10 10 0 6 5 10 10 10
6 0 10 -4 10 -10z m100 0 c0 -5 -4 -10 -10 -10 -5 0 -10 5 -10 10 0 6 5 10 10
10 6 0 10 -4 10 -10z m100 0 c0 -5 -4 -10 -10 -10 -5 0 -10 5 -10 10 0 6 5 10
10 10 6 0 10 -4 10 -10z m100 0 c0 -5 -4 -10 -10 -10 -5 0 -10 5 -10 10 0 6 5
10 10 10 6 0 10 -4 10 -10z m100 0 c0 -5 -4 -10 -10 -10 -5 0 -10 5 -10 10 0
6 5 10 10 10 6 0 10 -4 10 -10z m100 0 c0 -5 -4 -10 -10 -10 -5 0 -10 5 -10
10 0 6 5 10 10 10 6 0 10 -4 10 -10z m100 0 c0 -5 -4 -10 -10 -10 -5 0 -10 5
-10 10 0 6 5 10 10 10 6 0 10 -4 10 -10z m100 0 c0 -5 -4 -10 -10 -10 -5 0
-10 5 -10 10 0 6 5 10 10 10 6 0 10 -4 10 -10z m-1100 -100 c0 -5 -4 -10 -10
-10 -5 0 -10 5 -10 10 0 6 5 10 10 10 6 0 10 -4 10 -10z m100 0 c0 -5 -4 -10
-10 -10 -5 0 -10 5 -10 10 0 6 5 10 10 10 6 0 10 -4 10 -10z m100 0 c0 -5 -4
-10 -10 -10 -5 0 -10 5 -10 10 0 6 5 10 10 10 6 0 10 -4 10 -10z m100 0 c0 -5
-4 -10 -10 -10 -5 0 -10 5 -10 10 0 6 5 10 10 10 6 0 10 -4 10 -10z m100 0 c0
-5 -4 -10 -10 -10 -5 0 -10 5 -10 10 0 6 5 10 10 10 6 0 10 -4 10 -10z m100 0
c0 -5 -4 -10 -10 -10 -5 0 -10 5 -10 10 0 6 5 10 10 10 6 0 10 -4 10 -10z
m100 0 c0 -5 -4 -10 -10 -10 -5 0 -10 5 -10 10 0 6 5 10 10 10 6 0 10 -4 10
-10z m100 0 c0 -5 -4 -10 -10 -10 -5 0 -10 5 -10 10 0 6 5 10 10 10 6 0 10 -4
10 -10z m100 0 c0 -5 -4 -10 -10 -10 -5 0 -10 5 -10 10 0 6 5 10 10 10 6 0 10
-4 10 -10z m100 0 c0 -5 -4 -10 -10 -10 -5 0 -10 5 -10 10 0 6 5 10 10 10 6 0
10 -4 10 -10z"/>
<path d="M4098 4326 c-21 -6 -46 -19 -55 -28 -23 -21 -43 -46 -43 -52 0 -3
-15 -20 -32 -38 -48 -48 -76 -83 -58 -73 8 5 53 19 100 31 47 12 103 27 126
33 l40 11 -15 65 c-9 36 -18 64 -21 64 -3 -1 -22 -6 -42 -13z"/>
<path d="M4190 4049 c-75 -22 -615 -169 -770 -210 -58 -15 -116 -31 -130 -34
-14 -4 -42 -11 -62 -16 -27 -7 -36 -14 -32 -24 4 -8 1 -15 -5 -15 -6 0 -11 5
-11 11 0 7 -10 9 -27 4 -16 -4 -44 -11 -63 -15 -67 -15 -165 -41 -185 -50 -11
-5 -39 -12 -62 -15 -26 -4 -43 -12 -43 -20 0 -8 -10 -13 -22 -13 -71 4 -78 0
-78 -42 l0 -40 40 0 c38 0 40 2 40 30 0 17 5 30 10 30 6 0 10 -13 10 -30 0
-28 2 -30 40 -30 29 0 40 4 40 15 0 8 5 15 10 15 6 0 10 -7 10 -15 0 -11 12
-15 50 -15 l50 0 0 -50 0 -50 39 0 c33 0 40 4 44 23 l4 22 8 -22 c5 -17 15
-23 36 -23 15 0 31 -4 34 -10 4 -6 -8 -10 -29 -10 -35 0 -36 -1 -36 -40 l0
-40 40 0 c39 0 40 1 40 35 0 19 5 35 10 35 6 0 10 -14 10 -31 0 -27 3 -30 23
-24 104 31 171 48 196 52 14 2 34 9 45 16 12 6 32 12 46 14 28 2 55 9 255 63
77 21 228 62 335 90 371 98 351 92 344 109 -3 9 -12 45 -20 80 -33 154 -71
238 -111 246 -10 2 -18 4 -18 5 0 9 -53 3 -105 -11z m-890 -289 c0 -5 -4 -10
-10 -10 -5 0 -10 5 -10 10 0 6 5 10 10 10 6 0 10 -4 10 -10z m-400 -100 c0 -5
-4 -10 -10 -10 -5 0 -10 5 -10 10 0 6 5 10 10 10 6 0 10 -4 10 -10z m100 0 c0
-5 -4 -10 -10 -10 -5 0 -10 5 -10 10 0 6 5 10 10 10 6 0 10 -4 10 -10z m100 0
c0 -5 -4 -10 -10 -10 -5 0 -10 5 -10 10 0 6 5 10 10 10 6 0 10 -4 10 -10z
m100 0 c0 -5 -4 -10 -10 -10 -5 0 -10 5 -10 10 0 6 5 10 10 10 6 0 10 -4 10
-10z m100 0 c0 -5 -4 -10 -10 -10 -5 0 -10 5 -10 10 0 6 5 10 10 10 6 0 10 -4
10 -10z m100 0 c0 -5 -4 -10 -10 -10 -5 0 -10 5 -10 10 0 6 5 10 10 10 6 0 10
-4 10 -10z m100 0 c0 -5 -4 -10 -10 -10 -5 0 -10 5 -10 10 0 6 5 10 10 10 6 0
10 -4 10 -10z m-400 -100 c0 -5 -4 -10 -10 -10 -5 0 -10 5 -10 10 0 6 5 10 10
10 6 0 10 -4 10 -10z m100 0 c0 -5 -4 -10 -10 -10 -5 0 -10 5 -10 10 0 6 5 10
10 10 6 0 10 -4 10 -10z m100 0 c0 -5 -4 -10 -10 -10 -5 0 -10 5 -10 10 0 6 5
10 10 10 6 0 10 -4 10 -10z m100 0 c0 -5 -4 -10 -10 -10 -5 0 -10 5 -10 10 0
6 5 10 10 10 6 0 10 -4 10 -10z m100 0 c0 -5 -4 -10 -10 -10 -5 0 -10 5 -10
10 0 6 5 10 10 10 6 0 10 -4 10 -10z m100 0 c0 -5 -4 -10 -10 -10 -5 0 -10 5
-10 10 0 6 5 10 10 10 6 0 10 -4 10 -10z m-400 -100 c0 -5 -4 -10 -10 -10 -5
0 -10 5 -10 10 0 6 5 10 10 10 6 0 10 -4 10 -10z m100 0 c0 -5 -4 -10 -10 -10
-5 0 -10 5 -10 10 0 6 5 10 10 10 6 0 10 -4 10 -10z m100 0 c0 -5 -4 -10 -10
-10 -5 0 -10 5 -10 10 0 6 5 10 10 10 6 0 10 -4 10 -10z"/>
<path d="M2628 3628 c-20 -7 -28 -17 -28 -34 0 -21 4 -24 40 -24 39 0 40 1 40
35 0 37 -6 40 -52 23z"/>
<path d="M2523 3603 c-41 -8 -27 -33 17 -33 33 0 40 3 40 20 0 20 -9 22 -57
13z"/>
<path d="M2450 3580 l-25 -8 28 -1 c15 -1 27 4 27 9 0 6 -1 10 -2 9 -2 -1 -14
-5 -28 -9z"/>
<path d="M2313 3543 c-7 -2 -13 -20 -13 -39 0 -33 1 -34 40 -34 l40 0 0 40 c0
37 -2 40 -27 39 -16 0 -34 -3 -40 -6z"/>
<path d="M2400 3510 l0 -40 40 0 40 0 0 40 0 40 -40 0 -40 0 0 -40z"/>
<path d="M2500 3510 l0 -40 40 0 40 0 0 40 0 40 -40 0 -40 0 0 -40z"/>
<path d="M2600 3510 l0 -40 40 0 40 0 0 40 0 40 -40 0 -40 0 0 -40z"/>
<path d="M2700 3510 l0 -40 40 0 40 0 0 40 0 40 -40 0 -40 0 0 -40z"/>
<path d="M2800 3510 l0 -40 40 0 40 0 0 40 0 40 -40 0 -40 0 0 -40z"/>
<path d="M2900 3510 l0 -40 40 0 40 0 0 40 0 40 -40 0 -40 0 0 -40z"/>
<path d="M4399 3536 c-2 -2 -49 -16 -104 -31 -55 -15 -165 -45 -245 -67 -80
-21 -163 -44 -185 -49 -22 -5 -47 -12 -55 -16 -8 -3 -55 -16 -105 -29 -49 -12
-110 -27 -135 -33 -25 -6 -52 -14 -60 -18 -8 -4 -23 -7 -32 -8 -37 -4 -90 -37
-84 -52 3 -8 6 -26 6 -39 0 -17 6 -24 19 -24 11 0 23 -4 26 -10 4 -6 -5 -10
-19 -10 -20 0 -26 -5 -26 -21 0 -18 4 -20 33 -14 17 4 37 11 42 15 6 4 24 10
40 13 17 2 44 9 60 15 17 6 71 20 120 32 89 21 119 28 350 90 66 18 132 35
147 37 14 3 35 13 45 22 10 9 33 24 51 31 17 8 32 19 32 23 0 14 27 37 35 29
4 -4 6 -2 4 3 -4 17 23 65 34 58 6 -4 7 -1 3 6 -5 7 0 21 10 32 14 15 8 29 -7
15z m-899 -276 c0 -5 -4 -10 -10 -10 -5 0 -10 5 -10 10 0 6 5 10 10 10 6 0 10
-4 10 -10z m100 0 c0 -5 -4 -10 -10 -10 -5 0 -10 5 -10 10 0 6 5 10 10 10 6 0
10 -4 10 -10z m100 0 c0 -5 -4 -10 -10 -10 -5 0 -10 5 -10 10 0 6 5 10 10 10
6 0 10 -4 10 -10z m100 0 c0 -5 -4 -10 -10 -10 -5 0 -10 5 -10 10 0 6 5 10 10
10 6 0 10 -4 10 -10z m-300 -100 c0 -5 -4 -10 -10 -10 -5 0 -10 5 -10 10 0 6
5 10 10 10 6 0 10 -4 10 -10z"/>
<path d="M2223 3520 c-13 -6 -23 -18 -23 -30 0 -17 6 -20 40 -20 38 0 40 2 40
30 0 32 -14 37 -57 20z"/>
<path d="M2138 3498 c-50 -13 -48 -28 2 -28 33 0 40 3 40 20 0 11 -1 20 -2 19
-2 -1 -20 -6 -40 -11z"/>
<path d="M1923 3440 c-17 -7 -23 -18 -23 -40 0 -28 2 -30 40 -30 l40 0 0 40
c0 43 -11 48 -57 30z"/>
<path d="M2000 3410 l0 -40 40 0 40 0 0 40 0 40 -40 0 -40 0 0 -40z"/>
<path d="M2100 3410 l0 -40 40 0 40 0 0 40 0 40 -40 0 -40 0 0 -40z"/>
<path d="M2200 3410 l0 -40 40 0 40 0 0 40 0 40 -40 0 -40 0 0 -40z"/>
<path d="M2300 3410 l0 -40 40 0 40 0 0 40 0 40 -40 0 -40 0 0 -40z"/>
<path d="M2400 3410 l0 -40 40 0 40 0 0 40 0 40 -40 0 -40 0 0 -40z"/>
<path d="M2500 3410 l0 -40 40 0 40 0 0 40 0 40 -40 0 -40 0 0 -40z"/>
<path d="M2600 3410 l0 -40 40 0 40 0 0 40 0 40 -40 0 -40 0 0 -40z"/>
<path d="M2700 3410 l0 -40 40 0 40 0 0 40 0 40 -40 0 -40 0 0 -40z"/>
<path d="M2800 3410 l0 -40 40 0 40 0 0 40 0 40 -40 0 -40 0 0 -40z"/>
<path d="M2900 3410 l0 -40 40 0 40 0 0 40 0 40 -40 0 -40 0 0 -40z"/>
<path d="M3000 3410 l0 -40 40 0 40 0 0 40 0 40 -40 0 -40 0 0 -40z"/>
<path d="M1830 3414 c-25 -7 -64 -18 -87 -24 -26 -6 -43 -17 -43 -25 0 -8 -4
-15 -10 -15 -5 0 -10 4 -10 9 0 6 -13 6 -32 1 -18 -5 -48 -12 -67 -15 -19 -3
-66 -15 -105 -26 -39 -12 -91 -25 -116 -31 -25 -5 -50 -16 -56 -24 -6 -8 -18
-12 -26 -9 -8 3 -93 -15 -189 -40 -234 -62 -310 -82 -330 -84 -12 -2 -49 -39
-49 -49 0 -6 -6 -15 -13 -19 -23 -14 -43 -113 -41 -198 1 -44 3 -82 4 -85 1
-3 2 -22 2 -43 -1 -42 -2 -41 98 -12 25 7 54 15 65 18 32 8 254 68 330 89 39
11 104 28 145 39 41 11 100 26 130 35 30 8 64 17 75 19 48 12 79 23 63 24 -22
1 -24 21 -3 21 11 0 15 12 15 50 l0 50 50 0 50 0 0 39 c0 33 -4 40 -22 44
l-23 4 23 8 c14 5 22 15 22 31 0 12 5 26 10 29 6 4 10 -7 10 -24 0 -29 2 -31
40 -31 l40 0 0 40 c0 39 -1 40 -36 40 -21 0 -33 4 -29 10 3 6 19 10 36 10 27
0 29 3 30 38 1 20 1 42 0 48 -1 6 19 12 46 13 55 2 55 2 51 34 -3 24 -4 24
-48 11z m-430 -154 c0 -5 -4 -10 -10 -10 -5 0 -10 5 -10 10 0 6 5 10 10 10 6
0 10 -4 10 -10z m100 0 c0 -5 -4 -10 -10 -10 -5 0 -10 5 -10 10 0 6 5 10 10
10 6 0 10 -4 10 -10z m100 0 c0 -5 -4 -10 -10 -10 -5 0 -10 5 -10 10 0 6 5 10
10 10 6 0 10 -4 10 -10z m100 0 c0 -5 -4 -10 -10 -10 -5 0 -10 5 -10 10 0 6 5
10 10 10 6 0 10 -4 10 -10z m-400 -100 c0 -5 -4 -10 -10 -10 -5 0 -10 5 -10
10 0 6 5 10 10 10 6 0 10 -4 10 -10z m100 0 c0 -5 -4 -10 -10 -10 -5 0 -10 5
-10 10 0 6 5 10 10 10 6 0 10 -4 10 -10z m100 0 c0 -5 -4 -10 -10 -10 -5 0
-10 5 -10 10 0 6 5 10 10 10 6 0 10 -4 10 -10z m100 0 c0 -5 -4 -10 -10 -10
-5 0 -10 5 -10 10 0 6 5 10 10 10 6 0 10 -4 10 -10z m-400 -100 c0 -5 -4 -10
-10 -10 -5 0 -10 5 -10 10 0 6 5 10 10 10 6 0 10 -4 10 -10z m100 0 c0 -5 -4
-10 -10 -10 -5 0 -10 5 -10 10 0 6 5 10 10 10 6 0 10 -4 10 -10z m100 0 c0 -5
-4 -10 -10 -10 -5 0 -10 5 -10 10 0 6 5 10 10 10 6 0 10 -4 10 -10z m100 0 c0
-5 -4 -10 -10 -10 -5 0 -10 5 -10 10 0 6 5 10 10 10 6 0 10 -4 10 -10z m-300
-100 c0 -5 -4 -10 -10 -10 -5 0 -10 5 -10 10 0 6 5 10 10 10 6 0 10 -4 10 -10z
m100 0 c0 -5 -4 -10 -10 -10 -5 0 -10 5 -10 10 0 6 5 10 10 10 6 0 10 -4 10
-10z m100 0 c0 -5 -4 -10 -10 -10 -5 0 -10 5 -10 10 0 6 5 10 10 10 6 0 10 -4
10 -10z m100 0 c0 -5 -4 -10 -10 -10 -5 0 -10 5 -10 10 0 6 5 10 10 10 6 0 10
-4 10 -10z m-300 -100 c0 -5 -4 -10 -10 -10 -5 0 -10 5 -10 10 0 6 5 10 10 10
6 0 10 -4 10 -10z"/>
<path d="M1800 3310 l0 -40 40 0 40 0 0 40 0 40 -40 0 -40 0 0 -40z"/>
<path d="M1900 3310 l0 -40 40 0 40 0 0 40 0 40 -40 0 -40 0 0 -40z"/>
<path d="M2000 3310 l0 -40 40 0 40 0 0 40 0 40 -40 0 -40 0 0 -40z"/>
<path d="M2100 3310 l0 -40 40 0 40 0 0 40 0 40 -40 0 -40 0 0 -40z"/>
<path d="M2200 3310 l0 -40 40 0 40 0 0 40 0 40 -40 0 -40 0 0 -40z"/>
<path d="M2300 3310 l0 -40 40 0 40 0 0 40 0 40 -40 0 -40 0 0 -40z"/>
<path d="M2400 3310 l0 -40 40 0 40 0 0 40 0 40 -40 0 -40 0 0 -40z"/>
<path d="M2500 3310 l0 -40 40 0 40 0 0 40 0 40 -40 0 -40 0 0 -40z"/>
<path d="M2600 3310 l0 -40 40 0 40 0 0 40 0 40 -40 0 -40 0 0 -40z"/>
<path d="M2700 3310 l0 -40 40 0 40 0 0 40 0 40 -40 0 -40 0 0 -40z"/>
<path d="M2800 3311 l0 -39 40 10 c35 9 40 14 40 39 0 27 -3 29 -40 29 -40 0
-40 0 -40 -39z"/>
<path d="M2900 3324 c0 -21 4 -24 20 -20 11 3 29 9 40 12 37 10 23 34 -20 34
-36 0 -40 -2 -40 -26z"/>
<path d="M3000 3340 c0 -12 27 -12 55 0 16 7 13 9 -17 9 -21 1 -38 -3 -38 -9z"/>
<path d="M3238 3318 c-23 -6 -38 -16 -38 -25 0 -10 6 -13 16 -9 9 3 27 9 40
12 13 3 24 12 24 20 0 8 -1 14 -2 13 -2 -1 -20 -6 -40 -11z"/>
<path d="M3133 3289 c-44 -13 -41 -19 7 -19 29 0 40 4 40 15 0 17 -2 17 -47 4z"/>
<path d="M1800 3210 l0 -40 40 0 40 0 0 40 0 40 -40 0 -40 0 0 -40z"/>
<path d="M1900 3210 l0 -40 40 0 40 0 0 40 0 40 -40 0 -40 0 0 -40z"/>
<path d="M2000 3210 l0 -40 40 0 40 0 0 40 0 40 -40 0 -40 0 0 -40z"/>
<path d="M2100 3210 l0 -40 40 0 40 0 0 40 0 40 -40 0 -40 0 0 -40z"/>
<path d="M2200 3210 l0 -40 40 0 40 0 0 40 0 40 -40 0 -40 0 0 -40z"/>
<path d="M2300 3210 l0 -40 40 0 40 0 0 40 0 40 -40 0 -40 0 0 -40z"/>
<path d="M2400 3209 c0 -41 0 -41 31 -35 17 3 35 6 40 6 5 0 9 16 9 35 0 34
-1 35 -40 35 l-40 0 0 -41z"/>
<path d="M2500 3221 c0 -29 0 -29 40 -19 29 8 40 16 40 29 0 15 -8 19 -40 19
-37 0 -40 -2 -40 -29z"/>
<path d="M2600 3235 c0 -18 16 -18 55 0 l30 13 -42 1 c-32 1 -43 -3 -43 -14z"/>
<path d="M2938 3238 c-22 -6 -38 -16 -38 -25 0 -10 6 -12 23 -8 12 4 30 9 40
11 9 3 17 12 17 20 0 8 -1 14 -2 13 -2 -1 -20 -6 -40 -11z"/>
<path d="M3000 3240 c0 -11 14 -11 50 0 22 7 21 8 -12 9 -21 1 -38 -3 -38 -9z"/>
<path d="M3318 3243 c-13 -3 -18 -15 -18 -39 0 -33 1 -34 40 -34 l40 0 0 40
c0 42 -10 47 -62 33z"/>
<path d="M3230 3221 c-15 -4 -26 -15 -28 -29 -3 -20 1 -22 37 -22 39 0 41 2
41 30 0 31 -6 33 -50 21z"/>
<path d="M2833 3209 c-18 -5 -33 -16 -33 -23 0 -11 8 -11 40 -3 22 6 40 17 40
24 0 15 -3 15 -47 2z"/>
<path d="M3123 3193 c-38 -7 -26 -23 17 -23 29 0 40 4 40 15 0 15 -13 17 -57
8z"/>
<path d="M2730 3180 c-22 -7 -21 -8 13 -9 20 -1 37 4 37 9 0 11 -14 11 -50 0z"/>
<path d="M1700 3110 l0 -40 40 0 40 0 0 40 0 40 -40 0 -40 0 0 -40z"/>
<path d="M1800 3110 l0 -40 40 0 40 0 0 40 0 40 -40 0 -40 0 0 -40z"/>
<path d="M1900 3110 l0 -40 40 0 40 0 0 40 0 40 -40 0 -40 0 0 -40z"/>
<path d="M2000 3109 l0 -40 38 3 c35 3 37 5 40 41 l3 37 -40 0 -41 0 0 -41z"/>
<path d="M2100 3119 c0 -30 2 -31 31 -25 17 3 35 6 40 6 5 0 9 11 9 25 0 23
-4 25 -40 25 -38 0 -40 -1 -40 -31z"/>
<path d="M2200 3129 c0 -15 4 -19 16 -15 9 3 27 9 40 12 38 10 28 24 -16 24
-34 0 -40 -3 -40 -21z"/>
<path d="M2308 3143 c7 -3 16 -2 19 1 4 3 -2 6 -13 5 -11 0 -14 -3 -6 -6z"/>
<path d="M2600 3135 c0 -12 7 -14 28 -9 52 13 59 23 15 24 -32 0 -43 -4 -43
-15z"/>
<path d="M2928 3138 c-22 -7 -28 -16 -28 -39 0 -27 2 -29 40 -29 l40 0 0 40
c0 43 -5 46 -52 28z"/>
<path d="M3000 3110 l0 -40 40 0 40 0 0 40 0 40 -40 0 -40 0 0 -40z"/>
<path d="M3100 3110 l0 -40 40 0 40 0 0 40 0 40 -40 0 -40 0 0 -40z"/>
<path d="M3200 3110 l0 -40 40 0 40 0 0 40 0 40 -40 0 -40 0 0 -40z"/>
<path d="M3300 3114 c0 -29 3 -35 16 -30 9 3 27 9 40 12 17 4 24 13 24 30 0
21 -4 24 -40 24 -39 0 -40 -1 -40 -36z"/>
<path d="M2533 3129 c-18 -5 -33 -16 -33 -23 0 -11 8 -11 40 -3 22 6 40 17 40
24 0 15 -3 15 -47 2z"/>
<path d="M2823 3113 c-15 -3 -23 -12 -23 -24 0 -16 7 -19 40 -19 36 0 40 3 40
25 0 26 -7 28 -57 18z"/>
<path d="M2431 3101 c-14 -4 -27 -13 -29 -20 -3 -10 3 -11 29 -6 41 9 49 13
49 26 0 10 -13 10 -49 0z"/>
<path d="M2735 3085 l-40 -13 43 -1 c31 -1 42 3 42 14 0 8 -1 15 -2 14 -2 0
-21 -6 -43 -14z"/>
<path d="M2355 3080 c-19 -8 -19 -9 3 -9 12 -1 22 4 22 9 0 6 -1 10 -2 9 -2 0
-12 -4 -23 -9z"/>
<path d="M1600 3010 l0 -40 40 0 40 0 0 40 0 40 -40 0 -40 0 0 -40z"/>
<path d="M1700 3014 c0 -35 1 -35 33 -29 44 10 47 13 47 41 0 21 -4 24 -40 24
-39 0 -40 -1 -40 -36z"/>
<path d="M1800 3026 c0 -22 2 -23 40 -13 22 6 40 17 40 24 0 8 -14 13 -40 13
-35 0 -40 -3 -40 -24z"/>
<path d="M1900 3040 c0 -12 8 -12 35 0 18 8 17 9 -7 9 -16 1 -28 -3 -28 -9z"/>
<path d="M2218 3043 c-10 -2 -18 -10 -18 -18 0 -10 8 -11 40 -3 22 6 40 14 40
19 0 9 -32 10 -62 2z"/>
<path d="M2600 3010 l0 -40 40 0 40 0 0 40 0 40 -40 0 -40 0 0 -40z"/>
<path d="M2700 3010 l0 -40 40 0 40 0 0 40 0 40 -40 0 -40 0 0 -40z"/>
<path d="M2800 3010 l0 -40 40 0 40 0 0 40 0 40 -40 0 -40 0 0 -40z"/>
<path d="M2900 3011 l0 -38 40 10 c35 10 40 15 40 39 0 26 -3 28 -40 28 -40 0
-40 0 -40 -39z"/>
<path d="M3000 3024 c0 -21 4 -24 20 -20 11 3 29 9 40 12 37 10 23 34 -20 34
-36 0 -40 -2 -40 -26z"/>
<path d="M3100 3040 c0 -11 14 -11 50 0 22 7 21 8 -12 9 -21 1 -38 -3 -38 -9z"/>
<path d="M3423 3043 c-19 -4 -23 -11 -23 -39 0 -33 1 -34 40 -34 l40 0 0 40
c0 42 -3 44 -57 33z"/>
<path d="M2523 3030 c-16 -6 -23 -18 -23 -35 0 -23 4 -25 40 -25 39 0 40 1 40
35 0 38 -12 43 -57 25z"/>
<path d="M2131 3021 c-14 -4 -27 -13 -29 -20 -3 -10 3 -11 29 -6 41 9 49 13
49 26 0 10 -13 10 -49 0z"/>
<path d="M3333 3019 c-23 -7 -33 -16 -33 -29 0 -17 7 -20 40 -20 38 0 40 2 40
30 0 33 0 33 -47 19z"/>
<path d="M2438 3008 c-52 -14 -50 -38 2 -38 36 0 40 3 40 25 0 14 -1 25 -2 24
-2 -1 -20 -6 -40 -11z"/>
<path d="M2023 2993 c-31 -6 -29 -23 1 -23 31 0 56 10 56 21 0 9 -17 10 -57 2z"/>
<path d="M3235 2993 c-41 -10 -39 -23 3 -23 31 0 42 4 42 15 0 15 -9 17 -45 8z"/>
<path d="M2340 2980 c-24 -8 -23 -8 8 -9 17 -1 32 4 32 9 0 11 -5 11 -40 0z"/>
<path d="M1831 2941 c-28 -7 -41 -31 -17 -31 24 0 66 19 66 30 0 11 -13 11
-49 1z"/>
<path d="M1900 2941 c0 -4 11 -6 25 -3 14 2 25 6 25 8 0 2 -11 4 -25 4 -14 0
-25 -4 -25 -9z"/>
<path d="M2207 2943 c-4 -3 -7 -21 -7 -40 0 -32 1 -33 40 -33 l40 0 0 40 c0
39 -1 40 -33 40 -19 0 -37 -3 -40 -7z"/>
<path d="M2300 2910 l0 -40 40 0 40 0 0 40 0 40 -40 0 -40 0 0 -40z"/>
<path d="M2400 2910 l0 -40 40 0 40 0 0 40 0 40 -40 0 -40 0 0 -40z"/>
<path d="M2500 2909 c0 -41 0 -41 33 -34 45 10 47 12 47 46 0 27 -2 29 -40 29
l-40 0 0 -41z"/>
<path d="M2600 2921 c0 -28 0 -28 40 -18 28 8 40 17 40 29 0 14 -8 18 -40 18
-37 0 -40 -2 -40 -29z"/>
<path d="M2700 2935 c0 -12 7 -14 28 -9 52 13 59 23 15 24 -32 0 -43 -4 -43
-15z"/>
<path d="M3033 2938 c-27 -9 -33 -16 -33 -39 0 -27 3 -29 40 -29 l40 0 0 40
c0 22 -3 40 -7 39 -5 -1 -23 -6 -40 -11z"/>
<path d="M3100 2910 l0 -40 40 0 40 0 0 40 0 40 -40 0 -40 0 0 -40z"/>
<path d="M3200 2910 l0 -40 40 0 40 0 0 40 0 40 -40 0 -40 0 0 -40z"/>
<path d="M3300 2910 l0 -40 40 0 40 0 0 40 0 40 -40 0 -40 0 0 -40z"/>
<path d="M3400 2910 l0 -40 40 0 40 0 0 40 0 40 -40 0 -40 0 0 -40z"/>
<path d="M2138 2928 c-31 -8 -38 -15 -38 -34 0 -21 4 -24 40 -24 39 0 40 1 40
35 0 19 -1 35 -2 34 -2 -1 -20 -6 -40 -11z"/>
<path d="M1723 2913 c-13 -2 -23 -11 -23 -19 0 -11 6 -14 20 -10 11 3 29 9 40
12 11 3 20 10 20 15 0 9 -17 10 -57 2z"/>
<path d="M2930 2911 c-14 -4 -26 -15 -28 -24 -3 -14 4 -17 37 -17 37 0 41 2
41 25 0 26 -7 28 -50 16z"/>
<path d="M2033 2899 c-45 -13 -41 -29 7 -29 33 0 40 3 40 20 0 22 -1 22 -47 9z"/>
<path d="M1635 2885 l-40 -13 43 -1 c31 -1 42 3 42 14 0 8 -1 15 -2 14 -2 0
-21 -6 -43 -14z"/>
<path d="M2820 2880 c-21 -7 -19 -8 18 -9 23 -1 42 4 42 9 0 12 -24 12 -60 0z"/>
<path d="M1958 2873 c7 -3 16 -2 19 1 4 3 -2 6 -13 5 -11 0 -14 -3 -6 -6z"/>
<path d="M1405 2825 c-49 -14 -110 -30 -135 -35 -50 -12 -78 -26 -68 -35 3 -4
68 10 144 30 77 21 158 42 182 47 23 5 42 12 42 14 0 11 -85 0 -165 -21z"/>
<path d="M1818 2843 c-13 -3 -18 -15 -18 -39 0 -33 1 -34 40 -34 l40 0 0 40
c0 42 -10 47 -62 33z"/>
<path d="M1900 2810 l0 -40 40 0 40 0 0 40 0 40 -40 0 -40 0 0 -40z"/>
<path d="M2000 2810 l0 -40 40 0 40 0 0 40 0 40 -40 0 -40 0 0 -40z"/>
<path d="M2100 2810 c0 -36 3 -40 24 -40 44 0 56 10 56 46 0 33 -1 34 -40 34
l-40 0 0 -40z"/>
<path d="M2200 2819 c0 -29 1 -30 33 -24 43 10 47 13 47 36 0 16 -7 19 -40 19
-38 0 -40 -2 -40 -31z"/>
<path d="M2300 2831 c0 -17 4 -18 40 -9 22 6 40 14 40 19 0 5 -18 9 -40 9 -33
0 -40 -4 -40 -19z"/>
<path d="M2700 2810 l0 -40 40 0 40 0 0 40 0 40 -40 0 -40 0 0 -40z"/>
<path d="M2800 2810 l0 -40 40 0 40 0 0 40 0 40 -40 0 -40 0 0 -40z"/>
<path d="M2900 2810 l0 -40 40 0 40 0 0 40 0 40 -40 0 -40 0 0 -40z"/>
<path d="M3000 2810 l0 -40 40 0 40 0 0 40 0 40 -40 0 -40 0 0 -40z"/>
<path d="M3100 2810 l0 -40 40 0 40 0 0 40 0 40 -40 0 -40 0 0 -40z"/>
<path d="M3200 2810 l0 -40 40 0 40 0 0 40 0 40 -40 0 -40 0 0 -40z"/>
<path d="M3300 2810 l0 -40 40 0 40 0 0 40 0 40 -40 0 -40 0 0 -40z"/>
<path d="M3400 2810 l0 -40 40 0 40 0 0 40 0 40 -40 0 -40 0 0 -40z"/>
<path d="M2628 2828 c-20 -7 -28 -17 -28 -34 0 -21 4 -24 40 -24 39 0 40 1 40
35 0 37 -6 40 -52 23z"/>
<path d="M1733 2819 c-23 -7 -33 -16 -33 -29 0 -17 7 -20 40 -20 38 0 40 2 40
30 0 33 0 33 -47 19z"/>
<path d="M2523 2803 c-41 -8 -27 -33 17 -33 33 0 40 3 40 20 0 20 -9 22 -57
13z"/>
<path d="M1635 2793 c-41 -10 -39 -23 3 -23 31 0 42 4 42 15 0 15 -9 17 -45 8z"/>
<path d="M2450 2780 l-25 -8 28 -1 c15 -1 27 4 27 9 0 6 -1 10 -2 9 -2 -1 -14
-5 -28 -9z"/>
<path d="M1427 2736 c-21 -8 -55 -17 -75 -21 -20 -4 -42 -11 -48 -16 -7 -5
-16 -9 -20 -7 -23 6 -84 -14 -84 -28 0 -10 -6 -13 -19 -9 -10 3 -56 -4 -102
-15 -46 -11 -95 -23 -109 -26 -14 -3 -56 -14 -95 -26 -38 -11 -106 -29 -150
-39 -44 -11 -84 -25 -90 -31 -7 -8 -6 -9 2 -4 9 5 11 2 7 -8 -3 -9 -10 -13
-15 -11 -5 3 -11 -6 -15 -20 -3 -14 -8 -24 -11 -21 -8 8 -156 -132 -160 -152
-4 -20 33 -23 78 -6 46 17 95 23 219 28 57 2 80 -1 94 -13 15 -12 17 -12 11
-2 -5 8 10 2 33 -15 23 -16 42 -34 42 -40 0 -6 7 -17 15 -24 8 -7 15 -23 15
-36 0 -12 5 -26 10 -29 6 -3 10 -17 10 -31 0 -14 7 -38 15 -53 8 -16 14 -42
14 -57 0 -16 2 -84 4 -151 2 -68 1 -123 -3 -123 -4 0 -6 -16 -5 -35 1 -19 -2
-35 -6 -35 -4 0 -6 -9 -4 -20 2 -11 1 -20 -4 -20 -4 0 -8 -10 -8 -22 -2 -29
-10 -77 -17 -105 -14 -56 -17 -71 -23 -118 -3 -27 -6 -69 -7 -92 0 -24 -4 -43
-8 -43 -4 0 -5 -6 -3 -12 3 -7 7 -51 10 -98 6 -120 16 -187 32 -230 4 -8 5
-20 5 -26 -3 -19 91 -64 110 -53 10 6 19 6 23 0 3 -6 24 -4 53 4 26 8 175 48
332 90 158 42 293 84 303 93 11 9 22 15 26 13 3 -3 18 13 33 35 21 32 28 55
31 108 2 37 0 69 -3 71 -3 2 -5 23 -4 47 1 24 -2 49 -8 56 -7 8 -7 12 0 12 5
0 8 15 6 33 -1 17 -4 32 -5 32 -1 0 -3 47 -5 105 -1 58 -3 105 -4 105 -1 0 -2
15 -3 33 -1 17 2 32 7 32 5 0 3 6 -3 14 -8 9 -11 37 -9 71 l4 57 -28 -4 c-36
-6 -42 5 -39 59 l3 43 -51 0 -51 0 0 50 c0 46 -2 50 -24 50 -14 0 -28 5 -31
10 -4 6 7 10 24 10 29 0 31 2 31 40 l0 40 -40 0 c-31 0 -40 -4 -40 -17 -1 -16
-2 -16 -12 2 -6 10 -10 41 -9 67 2 42 -1 48 -18 48 -11 0 -23 5 -26 10 -4 6 5
10 19 10 24 0 26 4 26 40 0 39 -1 40 -35 40 -19 0 -35 5 -35 10 0 6 16 10 35
10 34 0 35 1 35 41 l0 41 -47 -3 -48 -3 0 149 c0 90 -4 149 -10 151 -5 2 -27
-3 -48 -10z m-127 -76 c0 -5 -4 -10 -10 -10 -5 0 -10 5 -10 10 0 6 5 10 10 10
6 0 10 -4 10 -10z m100 0 c0 -5 -4 -10 -10 -10 -5 0 -10 5 -10 10 0 6 5 10 10
10 6 0 10 -4 10 -10z m-200 -100 c0 -5 -4 -10 -10 -10 -5 0 -10 5 -10 10 0 6
5 10 10 10 6 0 10 -4 10 -10z m100 0 c0 -5 -4 -10 -10 -10 -5 0 -10 5 -10 10
0 6 5 10 10 10 6 0 10 -4 10 -10z m100 0 c0 -5 -4 -10 -10 -10 -5 0 -10 5 -10
10 0 6 5 10 10 10 6 0 10 -4 10 -10z m-200 -100 c0 -5 -4 -10 -10 -10 -5 0
-10 5 -10 10 0 6 5 10 10 10 6 0 10 -4 10 -10z m100 0 c0 -5 -4 -10 -10 -10
-5 0 -10 5 -10 10 0 6 5 10 10 10 6 0 10 -4 10 -10z m100 0 c0 -5 -4 -10 -10
-10 -5 0 -10 5 -10 10 0 6 5 10 10 10 6 0 10 -4 10 -10z m-200 -100 c0 -5 -4
-10 -10 -10 -5 0 -10 5 -10 10 0 6 5 10 10 10 6 0 10 -4 10 -10z m100 0 c0 -5
-4 -10 -10 -10 -5 0 -10 5 -10 10 0 6 5 10 10 10 6 0 10 -4 10 -10z m100 0 c0
-5 -4 -10 -10 -10 -5 0 -10 5 -10 10 0 6 5 10 10 10 6 0 10 -4 10 -10z m100 0
c0 -5 -4 -10 -10 -10 -5 0 -10 5 -10 10 0 6 5 10 10 10 6 0 10 -4 10 -10z
m-300 -100 c0 -5 -4 -10 -10 -10 -5 0 -10 5 -10 10 0 6 5 10 10 10 6 0 10 -4
10 -10z m100 0 c0 -5 -4 -10 -10 -10 -5 0 -10 5 -10 10 0 6 5 10 10 10 6 0 10
-4 10 -10z m100 0 c0 -5 -4 -10 -10 -10 -5 0 -10 5 -10 10 0 6 5 10 10 10 6 0
10 -4 10 -10z m100 0 c0 -5 -4 -10 -10 -10 -5 0 -10 5 -10 10 0 6 5 10 10 10
6 0 10 -4 10 -10z m-300 -100 c0 -5 -4 -10 -10 -10 -5 0 -10 5 -10 10 0 6 5
10 10 10 6 0 10 -4 10 -10z m100 0 c0 -5 -4 -10 -10 -10 -5 0 -10 5 -10 10 0
6 5 10 10 10 6 0 10 -4 10 -10z m100 0 c0 -5 -4 -10 -10 -10 -5 0 -10 5 -10
10 0 6 5 10 10 10 6 0 10 -4 10 -10z m100 0 c0 -5 -4 -10 -10 -10 -5 0 -10 5
-10 10 0 6 5 10 10 10 6 0 10 -4 10 -10z m-54 -81 c3 -5 16 -9 30 -9 19 0 24
-5 26 -27 1 -16 2 -36 3 -45 0 -9 4 -20 7 -23 12 -13 -26 -76 -49 -81 -13 -4
-23 -13 -23 -21 0 -10 -6 -13 -17 -9 -9 4 -20 1 -25 -6 -6 -11 -10 -10 -17 0
-4 8 -12 14 -17 13 -15 0 -53 32 -48 41 3 4 -1 8 -10 8 -20 0 -30 55 -17 98 1
1 0 4 -1 6 -7 11 48 56 68 56 13 0 25 4 28 9 7 10 54 2 62 -10z m-146 -19 c0
-5 -4 -10 -10 -10 -5 0 -10 5 -10 10 0 6 5 10 10 10 6 0 10 -4 10 -10z m300 0
c0 -5 -4 -10 -10 -10 -5 0 -10 5 -10 10 0 6 5 10 10 10 6 0 10 -4 10 -10z m0
-100 c0 -5 -4 -10 -10 -10 -5 0 -10 5 -10 10 0 6 5 10 10 10 6 0 10 -4 10 -10z
m-100 -100 c0 -5 -4 -10 -10 -10 -5 0 -10 5 -10 10 0 6 5 10 10 10 6 0 10 -4
10 -10z m100 0 c0 -5 -4 -10 -10 -10 -5 0 -10 5 -10 10 0 6 5 10 10 10 6 0 10
-4 10 -10z m100 0 c0 -5 -4 -10 -10 -10 -5 0 -10 5 -10 10 0 6 5 10 10 10 6 0
10 -4 10 -10z m-300 -100 c0 -5 -4 -10 -10 -10 -5 0 -10 5 -10 10 0 6 5 10 10
10 6 0 10 -4 10 -10z m100 0 c0 -5 -4 -10 -10 -10 -5 0 -10 5 -10 10 0 6 5 10
10 10 6 0 10 -4 10 -10z m100 0 c0 -5 -4 -10 -10 -10 -5 0 -10 5 -10 10 0 6 5
10 10 10 6 0 10 -4 10 -10z m100 0 c0 -5 -4 -10 -10 -10 -5 0 -10 5 -10 10 0
6 5 10 10 10 6 0 10 -4 10 -10z m100 0 c0 -5 -4 -10 -10 -10 -5 0 -10 5 -10
10 0 6 5 10 10 10 6 0 10 -4 10 -10z m-300 -100 c0 -5 -4 -10 -10 -10 -5 0
-10 5 -10 10 0 6 5 10 10 10 6 0 10 -4 10 -10z m100 0 c0 -5 -4 -10 -10 -10
-5 0 -10 5 -10 10 0 6 5 10 10 10 6 0 10 -4 10 -10z m100 0 c0 -5 -4 -10 -10
-10 -5 0 -10 5 -10 10 0 6 5 10 10 10 6 0 10 -4 10 -10z m100 0 c0 -5 -4 -10
-10 -10 -5 0 -10 5 -10 10 0 6 5 10 10 10 6 0 10 -4 10 -10z m-200 -100 c0 -5
-4 -10 -10 -10 -5 0 -10 5 -10 10 0 6 5 10 10 10 6 0 10 -4 10 -10z m100 0 c0
-5 -4 -10 -10 -10 -5 0 -10 5 -10 10 0 6 5 10 10 10 6 0 10 -4 10 -10z m100 0
c0 -5 -4 -10 -10 -10 -5 0 -10 5 -10 10 0 6 5 10 10 10 6 0 10 -4 10 -10z
m-100 -100 c0 -5 -4 -10 -10 -10 -5 0 -10 5 -10 10 0 6 5 10 10 10 6 0 10 -4
10 -10z m100 0 c0 -5 -4 -10 -10 -10 -5 0 -10 5 -10 10 0 6 5 10 10 10 6 0 10
-4 10 -10z m-315 -150 c4 -6 10 -8 14 -5 15 9 58 -40 64 -73 8 -38 -2 -94 -14
-86 -5 3 -9 -2 -9 -11 0 -9 -4 -13 -10 -10 -5 3 -10 2 -10 -3 0 -6 -12 -13
-27 -17 -63 -17 -74 -14 -113 26 -34 36 -38 44 -33 76 6 36 33 99 33 78 0 -5
4 -5 8 2 4 6 23 16 42 21 47 14 48 14 55 2z"/>
<path d="M1373 2012 c-29 -19 -12 -72 23 -72 31 0 53 42 34 65 -13 16 -38 19
-57 7z m27 -52 c0 -5 -4 -10 -10 -10 -5 0 -10 5 -10 10 0 6 5 10 10 10 6 0 10
-4 10 -10z"/>
<path d="M1424 1224 c-16 -24 -16 -26 2 -44 39 -40 96 9 58 51 -23 26 -40 24
-60 -7z"/>
<path d="M1500 2710 l0 -40 40 0 40 0 0 40 0 40 -40 0 -40 0 0 -40z"/>
<path d="M1600 2710 l0 -40 40 0 40 0 0 40 0 40 -40 0 -40 0 0 -40z"/>
<path d="M1700 2710 l0 -40 40 0 40 0 0 40 0 40 -40 0 -40 0 0 -40z"/>
<path d="M1800 2710 l0 -40 40 0 40 0 0 40 0 40 -40 0 -40 0 0 -40z"/>
<path d="M1900 2710 c0 -45 5 -47 40 -23 54 37 54 63 0 63 l-40 0 0 -40z"/>
<path d="M2000 2735 c0 -19 11 -19 36 0 18 14 18 14 -8 15 -18 0 -28 -5 -28
-15z"/>
<path d="M2313 2743 c-7 -2 -13 -20 -13 -39 0 -33 1 -34 40 -34 l40 0 0 40 c0
37 -2 40 -27 39 -16 0 -34 -3 -40 -6z"/>
<path d="M2400 2710 c0 -22 4 -40 10 -40 5 0 7 7 4 15 -4 8 1 26 10 40 16 24
15 25 -4 25 -17 0 -20 -7 -20 -40z"/>
<path d="M2600 2710 l0 -40 40 0 40 0 0 40 0 40 -40 0 -40 0 0 -40z"/>
<path d="M2700 2710 l0 -40 40 0 40 0 0 40 0 40 -40 0 -40 0 0 -40z"/>
<path d="M2800 2710 l0 -40 40 0 40 0 0 40 0 40 -40 0 -40 0 0 -40z"/>
<path d="M2900 2710 l0 -40 40 0 40 0 0 40 0 40 -40 0 -40 0 0 -40z"/>
<path d="M3000 2710 l0 -40 40 0 40 0 0 40 0 40 -40 0 -40 0 0 -40z"/>
<path d="M3100 2710 l0 -40 40 0 40 0 0 40 0 40 -40 0 -40 0 0 -40z"/>
<path d="M3200 2710 l0 -40 40 0 40 0 0 40 0 40 -40 0 -40 0 0 -40z"/>
<path d="M3300 2710 l0 -40 40 0 40 0 0 40 0 40 -40 0 -40 0 0 -40z"/>
<path d="M3400 2710 l0 -40 40 0 40 0 0 40 0 40 -40 0 -40 0 0 -40z"/>
<path d="M3500 2710 l0 -40 40 0 40 0 0 40 0 40 -40 0 -40 0 0 -40z"/>
<path d="M2223 2723 c-16 -3 -23 -11 -23 -29 0 -21 4 -24 40 -24 38 0 40 2 40
30 0 31 -5 33 -57 23z"/>
<path d="M2138 2698 c-50 -13 -48 -28 2 -28 33 0 40 3 40 20 0 11 -1 20 -2 19
-2 -1 -20 -6 -40 -11z"/>
<path d="M2505 2697 c-8 -19 -2 -31 13 -26 5 2 6 13 2 24 -7 19 -8 19 -15 2z"/>
<path d="M1500 2610 l0 -40 40 0 40 0 0 40 0 40 -40 0 -40 0 0 -40z"/>
<path d="M1600 2610 l0 -40 40 0 40 0 0 40 0 40 -40 0 -40 0 0 -40z"/>
<path d="M1700 2610 l0 -40 40 0 40 0 0 40 0 40 -40 0 -40 0 0 -40z"/>
<path d="M1800 2610 c0 -50 18 -52 54 -6 14 19 26 37 26 40 0 3 -18 6 -40 6
l-40 0 0 -40z"/>
<path d="M2000 2635 c0 -13 4 -14 23 -4 33 17 33 19 4 19 -18 0 -27 -5 -27
-15z"/>
<path d="M2117 2635 c11 -8 24 -26 27 -40 11 -42 36 -31 36 15 l0 40 -42 0
c-40 0 -41 -1 -21 -15z"/>
<path d="M2200 2610 l0 -40 40 0 40 0 0 40 0 40 -40 0 -40 0 0 -40z"/>
<path d="M2300 2610 l0 -40 40 0 40 0 0 40 0 40 -40 0 -40 0 0 -40z"/>
<path d="M2400 2610 c0 -34 3 -40 21 -40 18 0 20 4 14 33 -14 62 -35 66 -35 7z"/>
<path d="M2502 2613 c2 -31 7 -39 26 -41 22 -3 23 -1 17 30 -9 42 -13 48 -31
48 -11 0 -14 -9 -12 -37z"/>
<path d="M2615 2618 c10 -45 13 -48 41 -48 21 0 24 4 24 40 0 39 -1 40 -36 40
-35 0 -35 -1 -29 -32z"/>
<path d="M2700 2610 l0 -40 40 0 40 0 0 40 0 40 -40 0 -40 0 0 -40z"/>
<path d="M2800 2610 l0 -40 40 0 40 0 0 40 0 40 -40 0 -40 0 0 -40z"/>
<path d="M2900 2610 l0 -40 40 0 40 0 0 40 0 40 -40 0 -40 0 0 -40z"/>
<path d="M3000 2610 l0 -40 40 0 40 0 0 40 0 40 -40 0 -40 0 0 -40z"/>
<path d="M3100 2610 l0 -40 40 0 40 0 0 40 0 40 -40 0 -40 0 0 -40z"/>
<path d="M3200 2610 l0 -40 40 0 40 0 0 40 0 40 -40 0 -40 0 0 -40z"/>
<path d="M3300 2610 l0 -40 40 0 40 0 0 40 0 40 -40 0 -40 0 0 -40z"/>
<path d="M3400 2610 l0 -40 40 0 40 0 0 40 0 40 -40 0 -40 0 0 -40z"/>
<path d="M3500 2610 l0 -40 40 0 40 0 0 40 0 40 -40 0 -40 0 0 -40z"/>
<path d="M1945 2600 c-32 -33 -23 -40 13 -10 13 11 22 24 20 30 -2 6 -16 -3
-33 -20z"/>
<path d="M2065 2580 c-3 -5 -1 -10 4 -10 6 0 11 5 11 10 0 6 -2 10 -4 10 -3 0
-8 -4 -11 -10z"/>
<path d="M1500 2510 l0 -40 40 0 40 0 0 40 0 40 -40 0 -40 0 0 -40z"/>
<path d="M1600 2510 l0 -40 40 0 40 0 0 40 0 40 -40 0 -40 0 0 -40z"/>
<path d="M1700 2510 l0 -40 40 0 40 0 0 40 0 40 -40 0 -40 0 0 -40z"/>
<path d="M1800 2510 c0 -24 5 -40 12 -40 6 0 9 2 6 6 -3 3 -2 21 2 40 6 26 5
34 -6 34 -10 0 -14 -12 -14 -40z"/>
<path d="M1900 2510 c0 -33 3 -40 20 -40 17 0 18 3 9 27 -5 14 -8 32 -5 40 3
7 -1 13 -9 13 -11 0 -15 -11 -15 -40z"/>
<path d="M2004 2536 c-13 -33 13 -66 50 -66 24 0 26 4 26 40 0 39 -1 40 -35
40 -21 0 -38 -6 -41 -14z"/>
<path d="M2161 2533 c0 -10 4 -27 9 -38 7 -16 9 -13 9 18 1 20 -3 37 -9 37 -5
0 -10 -8 -9 -17z"/>
<path d="M2200 2510 l0 -40 40 0 40 0 0 40 0 40 -40 0 -40 0 0 -40z"/>
<path d="M2300 2510 l0 -40 40 0 40 0 0 40 0 40 -40 0 -40 0 0 -40z"/>
<path d="M2400 2510 c0 -39 1 -40 36 -40 29 0 35 3 30 16 -3 9 -9 27 -12 40
-4 17 -13 24 -30 24 -21 0 -24 -4 -24 -40z"/>
<path d="M2522 2510 c9 -33 15 -40 35 -40 20 0 23 4 19 20 -3 11 -9 29 -12 40
-3 13 -14 20 -29 20 -22 0 -22 -2 -13 -40z"/>
<path d="M2642 2510 c6 -22 16 -40 24 -40 10 0 14 13 14 40 0 36 -3 40 -24 40
-23 0 -23 -2 -14 -40z"/>
<path d="M2700 2510 l0 -40 40 0 40 0 0 40 0 40 -40 0 -40 0 0 -40z"/>
<path d="M2800 2510 l0 -40 40 0 40 0 0 40 0 40 -40 0 -40 0 0 -40z"/>
<path d="M2900 2510 l0 -40 40 0 40 0 0 40 0 40 -40 0 -40 0 0 -40z"/>
<path d="M3000 2510 l0 -40 40 0 40 0 0 40 0 40 -40 0 -40 0 0 -40z"/>
<path d="M3100 2510 l0 -40 40 0 40 0 0 40 0 40 -40 0 -40 0 0 -40z"/>
<path d="M3200 2510 l0 -40 40 0 40 0 0 40 0 40 -40 0 -40 0 0 -40z"/>
<path d="M3300 2510 l0 -40 40 0 40 0 0 40 0 40 -40 0 -40 0 0 -40z"/>
<path d="M3400 2510 l0 -40 40 0 40 0 0 40 0 40 -40 0 -40 0 0 -40z"/>
<path d="M3500 2510 l0 -40 40 0 40 0 0 40 0 40 -40 0 -40 0 0 -40z"/>
<path d="M1600 2410 l0 -40 40 0 40 0 0 40 0 40 -40 0 -40 0 0 -40z"/>
<path d="M1700 2410 l0 -40 40 0 40 0 0 40 0 40 -40 0 -40 0 0 -40z"/>
<path d="M1800 2410 c0 -22 4 -40 8 -40 17 0 21 13 11 31 -6 13 -6 19 0 19 6
0 8 7 5 15 -11 28 -24 15 -24 -25z"/>
<path d="M1900 2410 l0 -40 40 0 c34 0 40 3 40 21 0 37 -19 59 -50 59 -28 0
-30 -2 -30 -40z"/>
<path d="M2040 2447 c0 -1 9 -10 20 -20 19 -16 20 -16 20 3 0 13 -7 20 -20 20
-11 0 -20 -1 -20 -3z"/>
<path d="M2102 2414 c3 -35 6 -39 33 -42 26 -3 28 -2 13 10 -9 7 -18 24 -20
37 -2 14 -9 26 -16 29 -10 3 -12 -6 -10 -34z"/>
<path d="M2200 2439 c0 -15 21 -53 34 -61 6 -4 19 -8 29 -8 13 0 17 9 17 40
l0 40 -40 0 c-22 0 -40 -5 -40 -11z"/>
<path d="M2300 2410 l0 -40 40 0 40 0 0 40 0 40 -40 0 -40 0 0 -40z"/>
<path d="M2400 2410 l0 -40 40 0 40 0 0 40 0 40 -40 0 -40 0 0 -40z"/>
<path d="M2544 2433 c15 -55 18 -63 27 -63 5 0 9 18 9 40 0 34 -3 40 -21 40
-15 0 -19 -5 -15 -17z"/>
<path d="M2666 2423 c10 -40 14 -41 14 -5 0 18 -5 32 -10 32 -6 0 -8 -11 -4
-27z"/>
<path d="M2700 2410 l0 -40 40 0 40 0 0 40 0 40 -40 0 -40 0 0 -40z"/>
<path d="M2800 2410 l0 -40 40 0 40 0 0 40 0 40 -40 0 -40 0 0 -40z"/>
<path d="M2900 2410 l0 -40 40 0 40 0 0 40 0 40 -40 0 -40 0 0 -40z"/>
<path d="M3000 2410 l0 -40 40 0 40 0 0 40 0 40 -40 0 -40 0 0 -40z"/>
<path d="M3100 2410 l0 -40 40 0 40 0 0 40 0 40 -40 0 -40 0 0 -40z"/>
<path d="M3200 2410 l0 -40 40 0 40 0 0 40 0 40 -40 0 -40 0 0 -40z"/>
<path d="M3300 2410 l0 -40 40 0 40 0 0 40 0 40 -40 0 -40 0 0 -40z"/>
<path d="M3400 2410 l0 -40 40 0 40 0 0 40 0 40 -40 0 -40 0 0 -40z"/>
<path d="M1600 2310 l0 -40 40 0 40 0 0 40 0 40 -40 0 -40 0 0 -40z"/>
<path d="M1700 2310 l0 -40 40 0 40 0 0 40 0 40 -40 0 -40 0 0 -40z"/>
<path d="M1800 2310 c0 -22 5 -40 10 -40 11 0 11 0 15 48 2 22 -2 32 -11 32
-10 0 -14 -13 -14 -40z"/>
<path d="M1900 2310 l0 -40 40 0 40 0 0 40 0 40 -40 0 -40 0 0 -40z"/>
<path d="M2000 2310 l0 -40 40 0 c27 0 40 4 40 14 0 22 -40 66 -61 66 -16 0
-19 -7 -19 -40z"/>
<path d="M2140 2340 c19 -13 30 -13 30 0 0 6 -10 10 -22 10 -19 0 -20 -2 -8
-10z"/>
<path d="M2265 2310 c-1 -22 3 -40 7 -40 4 0 8 18 8 40 0 22 -3 40 -7 40 -5 0
-8 -18 -8 -40z"/>
<path d="M2300 2309 l0 -40 38 3 c35 3 37 5 40 41 l3 37 -40 0 -41 0 0 -41z"/>
<path d="M2400 2319 c0 -30 2 -31 31 -25 17 3 35 6 40 6 5 0 9 11 9 25 0 23
-4 25 -40 25 -38 0 -40 -1 -40 -31z"/>
<path d="M2569 2348 c-1 -2 -2 -14 -3 -28 0 -14 -5 -31 -9 -37 -5 -9 -3 -13 7
-13 12 0 16 10 16 40 0 32 -5 51 -11 38z"/>
<path d="M2600 2312 c0 -32 4 -42 16 -42 12 0 14 7 9 33 -11 51 -25 56 -25 9z"/>
<path d="M2700 2310 l0 -40 40 0 40 0 0 40 0 40 -40 0 -40 0 0 -40z"/>
<path d="M2800 2310 l0 -40 40 0 40 0 0 40 0 40 -40 0 -40 0 0 -40z"/>
<path d="M2900 2310 l0 -40 40 0 40 0 0 40 0 40 -40 0 -40 0 0 -40z"/>
<path d="M3000 2310 l0 -40 40 0 40 0 0 40 0 40 -40 0 -40 0 0 -40z"/>
<path d="M3100 2310 l0 -40 40 0 40 0 0 40 0 40 -40 0 -40 0 0 -40z"/>
<path d="M3200 2310 l0 -40 40 0 40 0 0 40 0 40 -40 0 -40 0 0 -40z"/>
<path d="M3300 2310 l0 -40 40 0 40 0 0 40 0 40 -40 0 -40 0 0 -40z"/>
<path d="M3400 2310 l0 -40 40 0 40 0 0 40 0 40 -40 0 -40 0 0 -40z"/>
<path d="M2100 2280 c0 -5 5 -10 11 -10 5 0 7 5 4 10 -3 6 -8 10 -11 10 -2 0
-4 -4 -4 -10z"/>
<path d="M1600 2210 l0 -40 40 0 40 0 0 40 0 40 -40 0 -40 0 0 -40z"/>
<path d="M1700 2210 l0 -40 40 0 40 0 0 40 0 40 -40 0 -40 0 0 -40z"/>
<path d="M1800 2210 c0 -28 4 -40 14 -40 10 0 13 10 12 33 -4 45 -5 47 -16 47
-5 0 -10 -18 -10 -40z"/>
<path d="M1900 2210 l0 -40 40 0 40 0 0 40 0 40 -40 0 -40 0 0 -40z"/>
<path d="M2000 2214 c0 -35 1 -35 33 -29 44 10 47 13 47 41 0 21 -4 24 -40 24
-39 0 -40 -1 -40 -36z"/>
<path d="M2100 2226 c0 -22 2 -23 40 -13 22 6 40 17 40 24 0 8 -14 13 -40 13
-35 0 -40 -3 -40 -24z"/>
<path d="M2200 2240 c0 -6 11 -8 28 -4 39 10 40 14 4 14 -18 0 -32 -5 -32 -10z"/>
<path d="M2513 2243 c-7 -2 -13 -16 -13 -30 0 -23 3 -25 31 -19 17 3 35 6 40
6 5 0 9 11 9 25 0 21 -5 25 -27 24 -16 0 -34 -3 -40 -6z"/>
<path d="M2600 2240 c0 -5 5 -10 10 -10 6 0 10 5 10 10 0 6 -4 10 -10 10 -5 0
-10 -4 -10 -10z"/>
<path d="M2700 2210 l0 -40 40 0 40 0 0 40 0 40 -40 0 -40 0 0 -40z"/>
<path d="M2800 2210 l0 -40 40 0 40 0 0 40 0 40 -40 0 -40 0 0 -40z"/>
<path d="M2900 2210 l0 -40 40 0 40 0 0 40 0 40 -40 0 -40 0 0 -40z"/>
<path d="M3000 2210 l0 -40 40 0 40 0 0 40 0 40 -40 0 -40 0 0 -40z"/>
<path d="M3100 2210 l0 -40 40 0 40 0 0 40 0 40 -40 0 -40 0 0 -40z"/>
<path d="M3200 2210 l0 -40 40 0 40 0 0 40 0 40 -40 0 -40 0 0 -40z"/>
<path d="M3300 2210 l0 -40 40 0 40 0 0 40 0 40 -40 0 -40 0 0 -40z"/>
<path d="M3400 2210 l0 -40 40 0 40 0 0 40 0 40 -40 0 -40 0 0 -40z"/>
<path d="M2430 2221 c-16 -4 -26 -15 -28 -30 -3 -20 0 -22 35 -19 33 3 38 7
41 31 3 28 -2 31 -48 18z"/>
<path d="M2338 2197 c-50 -14 -48 -27 2 -27 33 0 40 3 40 20 0 11 -1 19 -2 19
-2 -1 -20 -6 -40 -12z"/>
<path d="M2660 2185 c-10 -12 -10 -15 4 -15 9 0 16 7 16 15 0 8 -2 15 -4 15
-2 0 -9 -7 -16 -15z"/>
<path d="M1700 2110 l0 -40 40 0 40 0 0 40 0 40 -40 0 -40 0 0 -40z"/>
<path d="M1800 2111 c0 -30 4 -41 15 -41 16 0 16 2 18 47 1 19 -5 29 -16 31
-14 3 -17 -4 -17 -37z"/>
<path d="M1900 2110 c0 -22 5 -40 10 -40 6 0 10 13 10 28 0 15 5 33 12 40 9 9
7 12 -10 12 -19 0 -22 -5 -22 -40z"/>
<path d="M2130 2141 c-18 -5 -26 -15 -28 -35 -3 -27 -2 -28 30 -21 45 10 48
13 48 41 0 25 -7 27 -50 15z"/>
<path d="M2200 2126 c0 -22 2 -23 40 -13 22 6 40 17 40 24 0 8 -14 13 -40 13
-35 0 -40 -3 -40 -24z"/>
<path d="M2300 2140 c0 -12 8 -12 35 0 18 8 17 9 -7 9 -16 1 -28 -3 -28 -9z"/>
<path d="M2607 2143 c-4 -3 -7 -21 -7 -40 0 -32 1 -33 40 -33 l40 0 0 40 c0
39 -1 40 -33 40 -19 0 -37 -3 -40 -7z"/>
<path d="M2700 2110 l0 -40 40 0 40 0 0 40 0 40 -40 0 -40 0 0 -40z"/>
<path d="M2800 2110 l0 -40 40 0 40 0 0 40 0 40 -40 0 -40 0 0 -40z"/>
<path d="M2900 2110 l0 -40 40 0 40 0 0 40 0 40 -40 0 -40 0 0 -40z"/>
<path d="M3000 2110 l0 -40 40 0 40 0 0 40 0 40 -40 0 -40 0 0 -40z"/>
<path d="M3100 2110 l0 -40 40 0 40 0 0 40 0 40 -40 0 -40 0 0 -40z"/>
<path d="M3200 2110 l0 -40 40 0 40 0 0 40 0 40 -40 0 -40 0 0 -40z"/>
<path d="M3300 2110 l0 -40 40 0 40 0 0 40 0 40 -40 0 -40 0 0 -40z"/>
<path d="M2538 2128 c-31 -8 -38 -15 -38 -34 0 -21 4 -24 40 -24 39 0 40 1 40
35 0 19 -1 35 -2 34 -2 -1 -20 -6 -40 -11z"/>
<path d="M2038 2117 c-26 -7 -38 -16 -38 -29 0 -14 8 -18 40 -18 38 0 40 2 40
30 0 17 -1 29 -2 29 -2 -1 -20 -6 -40 -12z"/>
<path d="M2433 2099 c-45 -13 -41 -29 7 -29 33 0 40 3 40 20 0 22 -1 22 -47 9z"/>
<path d="M2358 2073 c7 -3 16 -2 19 1 4 3 -2 6 -13 5 -11 0 -14 -3 -6 -6z"/>
<path d="M1700 2010 l0 -40 40 0 40 0 0 40 0 40 -40 0 -40 0 0 -40z"/>
<path d="M1800 2010 c0 -32 4 -40 18 -40 14 0 17 8 17 40 0 32 -3 40 -17 40
-14 0 -18 -8 -18 -40z"/>
<path d="M1904 2018 c3 -18 5 -36 5 -40 1 -11 71 -10 71 1 0 5 -9 13 -20 16
-11 3 -23 17 -26 31 -10 38 -35 31 -30 -8z"/>
<path d="M2218 2043 c-13 -3 -18 -15 -18 -39 0 -33 1 -34 40 -34 l40 0 0 40
c0 42 -10 47 -62 33z"/>
<path d="M2300 2010 l0 -40 40 0 40 0 0 40 0 40 -40 0 -40 0 0 -40z"/>
<path d="M2400 2010 l0 -40 40 0 40 0 0 40 0 40 -40 0 -40 0 0 -40z"/>
<path d="M2500 2010 l0 -40 40 0 40 0 0 40 0 40 -40 0 -40 0 0 -40z"/>
<path d="M2600 2010 l0 -40 40 0 40 0 0 40 0 40 -40 0 -40 0 0 -40z"/>
<path d="M2700 2010 l0 -40 40 0 40 0 0 40 0 40 -40 0 -40 0 0 -40z"/>
<path d="M2800 2010 l0 -40 40 0 40 0 0 40 0 40 -40 0 -40 0 0 -40z"/>
<path d="M2900 2010 l0 -40 40 0 40 0 0 40 0 40 -40 0 -40 0 0 -40z"/>
<path d="M3000 2010 l0 -40 40 0 40 0 0 40 0 40 -40 0 -40 0 0 -40z"/>
<path d="M3100 2010 l0 -40 40 0 40 0 0 40 0 40 -40 0 -40 0 0 -40z"/>
<path d="M3200 2010 l0 -40 40 0 40 0 0 40 0 40 -40 0 -40 0 0 -40z"/>
<path d="M3300 2010 l0 -40 40 0 40 0 0 40 0 40 -40 0 -40 0 0 -40z"/>
<path d="M2133 2019 c-23 -7 -33 -16 -33 -29 0 -17 7 -20 40 -20 38 0 40 2 40
30 0 33 0 33 -47 19z"/>
<path d="M2035 1993 c-41 -10 -39 -23 3 -23 31 0 42 4 42 15 0 15 -9 17 -45 8z"/>
<path d="M1800 1909 c0 -36 2 -40 22 -37 17 2 22 9 21 31 -2 46 -2 47 -23 47
-17 0 -20 -7 -20 -41z"/>
<path d="M1910 1910 c0 -39 1 -40 35 -40 34 0 35 1 35 40 0 39 -1 40 -35 40
-34 0 -35 -1 -35 -40z"/>
<path d="M2000 1910 l0 -40 40 0 40 0 0 40 0 40 -40 0 -40 0 0 -40z"/>
<path d="M2100 1910 l0 -40 40 0 40 0 0 40 0 40 -40 0 -40 0 0 -40z"/>
<path d="M2200 1910 l0 -40 40 0 40 0 0 40 0 40 -40 0 -40 0 0 -40z"/>
<path d="M2300 1910 l0 -40 40 0 40 0 0 40 0 40 -40 0 -40 0 0 -40z"/>
<path d="M2400 1910 l0 -40 40 0 40 0 0 40 0 40 -40 0 -40 0 0 -40z"/>
<path d="M2500 1910 l0 -40 40 0 40 0 0 40 0 40 -40 0 -40 0 0 -40z"/>
<path d="M2600 1910 l0 -40 40 0 40 0 0 40 0 40 -40 0 -40 0 0 -40z"/>
<path d="M2700 1910 l0 -40 40 0 40 0 0 40 0 40 -40 0 -40 0 0 -40z"/>
<path d="M2800 1910 l0 -40 40 0 40 0 0 40 0 40 -40 0 -40 0 0 -40z"/>
<path d="M2900 1910 l0 -40 40 0 40 0 0 40 0 40 -40 0 -40 0 0 -40z"/>
<path d="M3000 1910 l0 -40 40 0 40 0 0 40 0 40 -40 0 -40 0 0 -40z"/>
<path d="M3100 1910 l0 -40 40 0 40 0 0 40 0 40 -40 0 -40 0 0 -40z"/>
<path d="M3200 1910 l0 -40 40 0 40 0 0 40 0 40 -40 0 -40 0 0 -40z"/>
<path d="M1910 1810 c0 -39 1 -40 35 -40 34 0 35 1 35 40 0 39 -1 40 -35 40
-34 0 -35 -1 -35 -40z"/>
<path d="M2000 1810 l0 -40 40 0 40 0 0 40 0 40 -40 0 -40 0 0 -40z"/>
<path d="M2100 1810 l0 -40 40 0 40 0 0 40 0 40 -40 0 -40 0 0 -40z"/>
<path d="M2200 1810 l0 -40 40 0 40 0 0 40 0 40 -40 0 -40 0 0 -40z"/>
<path d="M2300 1810 l0 -40 40 0 40 0 0 40 0 40 -40 0 -40 0 0 -40z"/>
<path d="M2400 1810 l0 -40 40 0 40 0 0 40 0 40 -40 0 -40 0 0 -40z"/>
<path d="M2500 1810 l0 -40 40 0 40 0 0 40 0 40 -40 0 -40 0 0 -40z"/>
<path d="M2600 1810 l0 -40 40 0 40 0 0 40 0 40 -40 0 -40 0 0 -40z"/>
<path d="M2700 1810 l0 -40 40 0 40 0 0 40 0 40 -40 0 -40 0 0 -40z"/>
<path d="M2800 1810 l0 -40 40 0 40 0 0 40 0 40 -40 0 -40 0 0 -40z"/>
<path d="M2900 1810 l0 -40 40 0 40 0 0 40 0 40 -40 0 -40 0 0 -40z"/>
<path d="M3000 1810 l0 -40 40 0 40 0 0 40 0 40 -40 0 -40 0 0 -40z"/>
<path d="M3100 1810 l0 -40 40 0 40 0 0 40 0 40 -40 0 -40 0 0 -40z"/>
<path d="M2100 1710 l0 -40 40 0 40 0 0 40 0 40 -40 0 -40 0 0 -40z"/>
<path d="M2200 1710 l0 -40 40 0 40 0 0 40 0 40 -40 0 -40 0 0 -40z"/>
<path d="M2300 1710 l0 -40 40 0 40 0 0 40 0 40 -40 0 -40 0 0 -40z"/>
<path d="M2400 1710 l0 -40 40 0 40 0 0 40 0 40 -40 0 -40 0 0 -40z"/>
<path d="M2500 1710 l0 -40 40 0 40 0 0 40 0 40 -40 0 -40 0 0 -40z"/>
<path d="M2600 1710 l0 -40 40 0 40 0 0 40 0 40 -40 0 -40 0 0 -40z"/>
<path d="M2700 1710 l0 -40 40 0 40 0 0 40 0 40 -40 0 -40 0 0 -40z"/>
<path d="M2800 1710 l0 -40 40 0 40 0 0 40 0 40 -40 0 -40 0 0 -40z"/>
<path d="M2900 1710 l0 -40 40 0 40 0 0 40 0 40 -40 0 -40 0 0 -40z"/>
<path d="M2300 1610 l0 -40 40 0 40 0 0 40 0 40 -40 0 -40 0 0 -40z"/>
<path d="M2400 1610 l0 -40 40 0 40 0 0 40 0 40 -40 0 -40 0 0 -40z"/>
<path d="M2500 1610 l0 -40 40 0 40 0 0 40 0 40 -40 0 -40 0 0 -40z"/>
<path d="M2600 1610 l0 -40 40 0 40 0 0 40 0 40 -40 0 -40 0 0 -40z"/>
<path d="M2700 1610 l0 -40 40 0 40 0 0 40 0 40 -40 0 -40 0 0 -40z"/>
<path d="M407 3028 c-7 -4 -21 -8 -32 -8 -17 -1 -65 -31 -65 -42 0 -1 17 -4
37 -6 20 -1 45 -10 55 -19 10 -9 18 -13 18 -9 0 4 6 1 14 -6 36 -34 58 -48 67
-43 5 4 6 12 2 18 -9 15 -12 47 -4 47 3 0 7 16 7 36 1 25 -2 34 -11 30 -7 -2
-16 -2 -19 1 -9 9 -55 10 -69 1z"/>
</g>
</svg>
